<svg width="347" height="103" viewBox="0 0 347 103" fill="none" xmlns="http://www.w3.org/2000/svg">
<g clip-path="url(#clip0_23_18)">
<path d="M270.1 40.1C276.9 32.9 284.3 29.8 293.2 31.9C302.6 34.1 309.4 41.4 310.1 52.4C311.1 67.5 310.8 82.7 310.9 97.8C310.9 99.1 309.1 100.6 307.8 101.6C307 102.2 305.6 102.1 304.4 102.1C288.2 103 288.2 103 288.2 87C288.2 79.2 288.3 71.3 288.2 63.5C288.1 56.3 285.4 52.9 279.8 52.8C273.9 52.7 269.8 56.7 269.7 63.4C269.5 74.1 269.4 84.7 269.7 95.4C269.8 100.3 267.9 102.1 263.4 102C259.4 102 255.4 102 251.4 101.8C248.3 101.7 246.7 100 246.7 96.6C246.8 66.1 246.8 35.6 246.7 5.1C246.7 1.5 248.1 -0.199997 251.6 -0.199997C256.1 -0.199997 260.6 -0.199997 265.1 -0.0999969C268.5 -0.0999969 269.6 1.7 269.6 5C269.5 15.7 269.6 26.3 269.6 37C269.6 37.8 269.8 38.4 270.1 40.1Z" fill="#4E3995"/>
<path d="M137.1 41.2C142.2 35.2 147.7 31.4 155.1 31.4C167.4 31.3 177.3 40.2 178.1 53.8C178.9 68.4 178.6 83.1 178.4 97.8C178.4 99.2 176.1 101.6 174.6 101.8C169.8 102.3 165 102.1 160.2 102C156.7 101.9 156.1 99.5 156.1 96.4C156.2 84.9 156.3 73.4 156.1 61.9C156 56.1 153.1 53.1 148.2 52.8C143.2 52.5 139.3 55.6 138.2 60.7C137.8 62.8 137.7 65 137.7 67.2C137.6 75.9 137.7 84.5 137.7 93.2C137.7 101.9 137.4 102.2 128.9 102.3C115.3 102.5 115.3 102.5 115.3 89C115.3 72.2 115.4 55.3 115.2 38.5C115.1 34.2 116.7 32.3 120.9 32.4C122.9 32.4 124.9 32.3 126.9 32.3C135.5 32.3 135.5 32.3 137.1 41.2Z" fill="#4E3995"/>
<path d="M67 73.2C68 79.2 71.2 83.1 76.9 83.1C82.9 83.1 89 81.9 94.8 80.2C98.5 79.1 100.4 79.2 101.9 82.7C107.3 95.9 107.2 95.9 94.6 100.1C88.4 102.1 81.5 103.1 75 102.7C53.7 101.2 40.9 82.6 44.6 59.6C47.8 39.7 66 27.8 86.1 32.4C98.6 35.3 107 46.4 108.3 61.8C109.3 73.2 109.3 73.2 98 73.2C87.6 73.2 77.4 73.2 67 73.2ZM86.2 60.1C86.2 53.7 83.9 50.7 78.9 50.2C72.5 49.5 67.9 53.2 66.7 60.1C73.1 60.1 79.5 60.1 86.2 60.1Z" fill="#4E3995"/>
<path d="M217.2 30.6C223 32 228.8 33.3 234.6 34.7C235.7 35 236.8 35.6 237.7 36.2C240.8 38.4 239.8 44.6 235.6 52.2C233.7 55.6 231.8 57 227.7 54.9C221.8 52 215.4 50.9 210 56C205.3 60.4 204.5 66.1 206.3 72.1C208.8 80.5 216.7 83.6 226.2 80.1C233.5 77.4 234.3 77.6 237 84.9C241.7 97.4 241 98.5 228.2 101.6C198.8 108.7 177 86.8 183.7 57.4C187.2 41.5 200.4 31.2 217.2 30.6Z" fill="#4E3995"/>
<path d="M21.2 40.6C23.3 38.4 24.1 37 25.3 36.3C28.4 34.5 31.6 32.2 34.9 31.6C43.2 30.2 48.1 36.2 45.8 44.1C45.3 45.9 44.7 47.6 44 49.3C41.8 55.2 41 55.6 35 54C29.6 52.6 25.2 54.8 23.7 60.1C22.9 62.9 22.6 66 22.6 69C22.5 78.1 22.4 87.3 22.6 96.4C22.7 100.3 21.1 101.9 17.4 102.1C17.2 102.1 17.1 102.1 16.9 102.1C0.300014 103.6 1.43647e-05 103.3 1.43647e-05 86.7C1.43647e-05 70.7 0.200014 54.8 -0.0999856 38.8C-0.199986 33.9 1.90001 32.2 6.30001 32.3C8.80001 32.3 11.3 32.4 13.8 32.3C18.7 32.1 22.3 33.2 21.2 40.6Z" fill="#4E3995"/>
<path d="M321.4 67.1C321.4 57.3 321.5 47.5 321.3 37.6C321.2 33.9 322.9 32.4 326.3 32.3C330.6 32.2 335 32.2 339.3 32.3C342.7 32.4 344.2 34.2 344.2 37.7C344.1 57.3 344.1 77 344.2 96.6C344.2 99.9 342.8 101.9 339.7 101.8C334 101.6 328.2 101 322.5 100.6C322.2 96 321.6 91.5 321.5 86.9C321.3 80.4 321.4 73.7 321.4 67.1Z" fill="#4E3995"/>
<path d="M332.7 25.4C323.8 25.4 319.3 21.3 319.3 13.1C319.3 4.9 323.9 0.499996 332.5 0.399996C341.3 0.299996 346.3 4.9 346.3 13.1C346.3 21.2 341.6 25.4 332.7 25.4Z" fill="#4E3995"/>
<path d="M86.2 60.1C79.5 60.1 73.1 60.1 66.7 60.1C67.9 53.2 72.6 49.5 78.9 50.2C83.9 50.7 86.2 53.7 86.2 60.1Z" fill="white"/>
</g>
<defs>
<clipPath id="clip0_23_18">
<rect width="346.3" height="103" fill="white"/>
</clipPath>
</defs>
</svg>
